<svg width="38" height="58" viewBox="0 0 38 58" fill="none" xmlns="http://www.w3.org/2000/svg">
<path d="M18.1371 0.417152C18.7163 0.127581 19.398 0.127581 19.9771 0.417152L36.4343 8.64572C37.1312 8.99419 37.5714 9.7065 37.5714 10.4857C37.5714 11.2649 37.1312 11.9772 36.4343 12.3257L23.657 18.7143L36.4343 25.1029C37.1312 25.4513 37.5714 26.1636 37.5714 26.9428C37.5714 27.722 37.1312 28.4343 36.4343 28.7828L21.1143 36.4428V55.7428C21.1143 56.4737 20.7265 57.1496 20.0957 57.5186C19.4648 57.8875 18.6856 57.8941 18.0486 57.5358L1.59145 48.2786C0.943705 47.9143 0.542847 47.2289 0.542847 46.4857V10.4857C0.542847 9.7065 0.98308 8.99419 1.68001 8.64572L18.1371 0.417152Z" fill="black"/>
</svg>
